<svg width="1100" height="1100" viewBox="0 0 1100 1100" fill="none" xmlns="http://www.w3.org/2000/svg">
<g clip-path="url(#clip0)">
<g clip-path="url(#clip1)">
<path d="M858.46 698.516C862.954 699.582 867.865 699.559 873.103 697.349C882.108 693.55 888.511 684.913 888.711 675.141C888.937 664.195 881.992 654.86 872.263 651.447C871.579 641.509 863.322 633.657 853.213 633.657C853.184 633.657 853.155 633.66 853.126 633.66C853.306 632.156 853.205 630.566 852.718 628.906C851.35 624.241 847.251 620.663 842.424 620.089C838.466 619.62 834.833 621.037 832.286 623.554C829.87 621.373 826.694 620.005 823.174 620.005C815.632 620.005 809.519 626.118 809.519 633.66C809.519 633.683 809.525 633.706 809.525 633.73C800.358 634.425 793.132 642.068 793.132 651.412C793.132 652.84 793.317 654.222 793.636 655.552C782.725 656.007 774.013 664.968 774.013 675.99C774.013 679.724 775.027 683.213 776.774 686.229C773.422 688.984 771.283 693.162 771.283 697.838C771.283 704.377 775.47 709.926 781.305 711.989C780.552 738.693 790.081 754.449 808.517 775.671C808.847 776.051 809.18 776.433 809.516 776.813C809.589 776.894 809.661 776.975 809.733 777.056C817.4 785.658 834.691 779.07 830.971 768.164C811.11 709.9 872.33 718.322 872.33 718.322C872.33 718.322 874.08 700.698 858.286 699.872C858.307 699.432 858.327 698.988 858.347 698.548C858.388 698.539 858.42 698.525 858.46 698.516Z" fill="#88C057"/>
<path d="M809.736 777.056C809.664 776.975 809.591 776.894 809.519 776.813C809.183 776.433 808.85 776.054 808.519 775.671C790.081 754.449 780.552 738.693 781.308 711.989C775.473 709.926 771.286 704.377 771.286 697.838C771.286 693.159 773.425 688.984 776.777 686.229C775.033 683.213 774.016 679.724 774.016 675.99C774.016 664.968 782.728 656.004 793.639 655.552C793.32 654.222 793.135 652.84 793.135 651.412C793.135 643.989 797.701 637.656 804.171 635.007C803.742 633.602 803.197 632.185 802.482 630.769C798.912 623.696 792.631 619.255 786.897 620.188C782.171 620.955 778.866 624.812 777.443 629.998C773.48 627.33 769.081 626.292 765.109 627.692C756.594 630.69 753.908 642.934 758.784 654.274C758.799 654.309 758.819 654.338 758.834 654.373C749.603 658.783 747.149 671.893 753.001 683.72C753.856 685.444 754.85 687.028 755.934 688.492C745.738 692.707 743.046 705.507 749.467 716.694C751.518 720.269 754.259 723.213 757.307 725.435C755.864 728.886 756.177 733.13 758.472 737.047C761.551 742.309 767.331 745.432 772.744 745.394C782.255 764.073 793.926 771.32 811.596 778.818C811.782 778.896 811.967 778.974 812.153 779.049C811.284 778.499 810.458 777.867 809.736 777.056Z" fill="#659C35"/>
<path d="M816.664 690.754C816.832 690.383 816.91 689.995 816.916 689.613C818.993 684.386 821.494 680 824.095 676.34C837.087 673.64 846.888 677.699 847.106 677.792C847.485 677.96 847.879 678.035 848.262 678.035C849.377 678.035 850.44 677.386 850.919 676.303C851.562 674.837 850.892 673.127 849.429 672.484C849.027 672.31 841.033 668.897 829.539 669.734C835.154 663.879 840.083 661.222 840.819 660.851C845.028 658.835 851.179 661.442 853.199 662.619C853.659 662.891 854.163 663.018 854.665 663.018C855.656 663.018 856.623 662.508 857.162 661.593C857.973 660.214 857.519 658.441 856.137 657.627C855.806 657.43 849.293 653.666 842.621 654.422C843.191 652.072 844.458 649.934 845.104 649.077C846.074 647.808 845.831 645.991 844.559 645.02C843.293 644.05 841.47 644.287 840.5 645.562C840.317 645.797 836.516 650.838 836.525 656.641C832.309 659.223 821.418 667.049 813.798 682.775C813.387 683.621 812.99 684.531 812.596 685.444C804.692 680.04 805.993 670.427 806.065 669.96C806.312 668.384 805.237 666.904 803.658 666.652C802.082 666.4 800.592 667.477 800.34 669.056C799.5 674.315 800.705 685.151 810.466 690.972C808.311 697.311 806.677 704.879 806.173 713.811C806.115 714.092 806.103 714.364 806.126 714.643C805.825 720.904 806.115 727.848 807.123 735.454C803.449 733.432 801.769 730.473 801.662 730.273C800.905 728.868 799.161 728.332 797.753 729.074C796.339 729.819 795.792 731.571 796.539 732.988C796.693 733.281 800.161 739.693 808.178 742.17C810.267 753.631 813.99 766.501 820.01 780.944C821.995 780.814 823.927 780.29 825.637 779.438C825.628 779.415 825.631 779.388 825.622 779.362C819.303 764.328 815.49 751.085 813.462 739.383C813.451 739.313 813.445 739.246 813.43 739.18C811.924 730.401 811.434 722.512 811.718 715.445C815.774 708.529 827.697 708.251 827.818 708.248C829.418 708.222 830.695 706.91 830.672 705.31C830.649 703.723 829.36 702.454 827.778 702.454C827.766 702.454 827.755 702.454 827.743 702.454C827.271 702.459 819.011 702.639 812.457 706.747C813.257 701.011 814.586 695.929 816.235 691.415C816.406 691.215 816.554 690.998 816.664 690.754Z" fill="#659C35"/>
<path d="M830.769 698.417C830.769 698.417 865.915 677.584 888.229 707.023C888.229 707.023 894.016 713.715 889.567 720.122C885.191 726.421 875.42 725.083 870.557 718.405C866.168 712.382 855.595 704.736 830.769 698.417Z" fill="#88C057"/>
<path d="M830.769 698.417C830.769 698.417 852.144 663.813 824.661 643.455C824.661 643.455 815.591 635.302 807.399 638.204C799.778 640.901 799.579 651.525 806.59 655.543C814.273 659.948 824.798 670.952 830.769 698.417Z" fill="#88C057"/>
<path d="M887.491 708.834C887.491 708.834 887.682 709.079 887.933 709.418C888.665 708.763 889.374 708.056 890.017 707.231C895.952 699.627 891.196 693.744 891.196 693.744C873.581 667.244 832.58 696.042 832.58 696.042C834.554 696.179 836.399 696.356 838.185 696.543C849.908 692.266 871.847 688.194 887.491 708.834Z" fill="#88C057"/>
<path d="M824.664 643.455C845.865 659.157 837.994 683.328 833.287 693.562C833.295 693.793 833.312 694.001 833.321 694.231C833.321 694.231 862.58 653.692 837.749 637.745C837.749 637.745 829.835 630.977 820.666 635.638C819.091 636.438 817.733 637.475 816.599 638.645C821.187 640.337 824.664 643.455 824.664 643.455Z" fill="#A4E869"/>
<path d="M875.688 650.927C865.303 644.198 852.121 654.358 852.121 654.358C849.934 656.978 847.949 659.797 846.118 662.694C844.301 675.932 835.676 690.242 831.387 696.677C831.134 697.571 830.92 698.355 830.772 698.918C835.741 695.581 850.216 686.551 864.443 684.213C867.974 681.872 871.34 679.301 874.27 676.51C889.975 661.557 875.688 650.927 875.688 650.927Z" fill="#659C35"/>
<path d="M830.769 698.417C830.769 698.417 865.915 677.584 888.229 707.023C888.229 707.023 894.016 713.715 889.567 720.122C885.191 726.421 875.42 725.083 870.557 718.405C866.168 712.382 855.595 704.736 830.769 698.417Z" fill="#A4E869"/>
<path d="M832.737 695.265C831.937 696.823 831.393 697.705 831.393 697.705C831.393 697.705 832.726 696.919 835.015 695.874C834.272 695.669 833.523 695.467 832.737 695.265Z" fill="#F2681C"/>
<path d="M851.056 713.991C852.255 710.654 852.181 707.345 851.432 704.226C846.081 701.98 839.512 699.77 831.393 697.705C829.425 688.658 826.962 681.428 824.271 675.602C820.561 674.312 816.503 673.854 812.396 675.329C799.511 679.959 742.848 761.484 732.252 789.909C731.256 792.583 733.354 794.679 736.026 793.682C764.451 783.086 846.426 726.874 851.056 713.991Z" fill="#ED8F20"/>
<path d="M755.452 766.9C753.533 765.983 751.668 764.864 749.908 763.574C748.638 762.64 746.858 762.919 745.93 764.186C745.001 765.454 745.275 767.236 746.542 768.165C748.586 769.665 750.759 770.969 752.997 772.037C753.393 772.225 753.812 772.316 754.225 772.316C755.287 772.316 756.306 771.718 756.796 770.696C757.471 769.278 756.87 767.575 755.452 766.9Z" fill="#DD7017"/>
<path d="M843.515 712.701C837.689 710.48 832.281 706.487 827.449 700.835C826.427 699.639 824.63 699.499 823.434 700.522C822.238 701.544 822.098 703.341 823.121 704.537C828.58 710.921 834.759 715.46 841.488 718.026C841.821 718.151 842.163 718.214 842.502 718.214C843.649 718.214 844.728 717.514 845.164 716.377C845.722 714.908 844.985 713.262 843.515 712.701Z" fill="#DD7017"/>
<path d="M796.703 690.273C797.811 690.561 798.699 691.492 798.833 692.705C799.343 697.352 801.743 703.375 805.966 706.351C807.251 707.256 807.558 709.033 806.65 710.32C806.097 711.106 805.215 711.525 804.32 711.525C803.754 711.525 803.181 711.357 802.68 711.004C796.982 706.986 794.149 699.764 793.328 694.354" fill="#DD7017"/>
<path d="M802.68 711.004C803.178 711.357 803.751 711.525 804.32 711.525C805.215 711.525 806.097 711.106 806.65 710.32C807.555 709.033 807.251 707.259 805.966 706.351C801.746 703.372 799.343 697.349 798.833 692.705C798.699 691.495 797.811 690.561 796.703 690.273C795.607 691.574 794.485 692.924 793.328 694.351C794.149 699.764 796.982 706.986 802.68 711.004Z" fill="#DD7017"/>
<path d="M818.419 743.326C813.037 742.455 805.978 739.619 802.022 734.012C801.117 732.727 801.424 730.95 802.709 730.042C803.99 729.137 805.77 729.444 806.678 730.728C809.654 734.946 815.677 737.352 820.324 737.862C821.571 737.998 822.505 738.93 822.762 740.089" fill="#DD7017"/>
<path d="M820.329 737.86C815.679 737.35 809.656 734.947 806.683 730.727C805.778 729.442 803.995 729.132 802.714 730.04C801.426 730.946 801.119 732.723 802.027 734.01C805.983 739.617 813.042 742.453 818.424 743.325C819.902 742.234 821.351 741.157 822.767 740.09C822.51 738.928 821.573 737.997 820.329 737.86Z" fill="#DD7017"/>
<path d="M774.019 720.065C775.155 720.333 776.069 721.272 776.206 722.503C776.525 725.421 778.014 729.192 780.617 731.031C781.901 731.937 782.208 733.714 781.3 735.001C780.745 735.787 779.865 736.205 778.971 736.205C778.404 736.205 777.832 736.037 777.33 735.684C773.549 733.016 771.521 728.394 770.784 724.678" fill="#DD7017"/>
<path d="M777.337 735.684C777.836 736.037 778.408 736.205 778.978 736.205C779.872 736.205 780.752 735.787 781.307 735.001C782.213 733.717 781.908 731.94 780.624 731.031C778.018 729.192 776.532 725.424 776.213 722.503C776.079 721.27 775.165 720.33 774.026 720.065C772.946 721.588 771.87 723.126 770.791 724.678C771.528 728.394 773.556 733.016 777.337 735.684Z" fill="#DD7017"/>
<path d="M783.327 767.441C779.462 766.937 774.089 764.913 771.124 760.707C770.219 759.419 770.524 757.645 771.808 756.737C773.095 755.826 774.872 756.139 775.777 757.42C777.617 760.026 781.384 761.512 784.303 761.831C785.867 762.002 786.994 763.409 786.823 764.972C786.815 765.061 786.767 765.135 786.749 765.22" fill="#DD7017"/>
<path d="M784.302 761.837C781.383 761.518 777.612 760.029 775.776 757.426C774.87 756.142 773.096 755.832 771.806 756.743C770.522 757.648 770.214 759.425 771.123 760.712C774.09 764.918 779.461 766.943 783.325 767.447C784.464 766.715 785.606 765.972 786.748 765.229C786.765 765.143 786.813 765.069 786.822 764.981C786.995 763.418 785.865 762.008 784.302 761.837Z" fill="#DD7017"/>
<path d="M866.224 710.622C859.881 706.618 847.967 701.04 836.521 706.194C835.42 706.691 834.164 705.909 834.164 704.714V694.354C834.167 691.96 832.515 690 830.498 690H824.994C822.976 690 821.325 691.96 821.325 694.354V705.329C821.325 706.365 820.372 707.15 819.339 706.94C814.692 705.997 802.625 704.529 791.085 711.317C789.505 712.245 790.421 714.684 792.234 714.357C797.606 713.389 804.677 712.723 809.456 714.581C810.708 715.066 810.889 716.754 809.763 717.48C806.368 719.662 800.107 724.68 796.004 733.906C795.306 735.476 797.267 736.883 798.611 735.793C803.853 731.541 812.476 725.78 819.79 726.708C820.651 726.818 821.305 727.511 821.293 728.366C821.218 733.199 821.28 749.617 825.333 755.832C825.972 756.812 827.403 756.861 828.099 755.917C830.681 752.423 836.279 743.159 836.048 728.691C836.034 727.74 836.809 726.967 837.774 726.999C841.463 727.116 850.173 728.142 857.081 734.786C858.212 735.876 860.086 734.935 859.888 733.389C859.346 729.159 856.982 722.761 848.423 717.8C847.123 717.046 847.343 715.13 848.806 714.776C851.763 714.062 856.858 713.382 865.256 713.655C866.962 713.706 867.657 711.526 866.224 710.622Z" fill="#88C057"/>
<path d="M868.15 714.357C867.92 714.198 867.652 714.098 867.373 714.064C866.382 713.945 865.39 713.833 864.399 713.701C864.045 713.667 863.689 713.64 863.337 713.606C856.122 713.489 851.594 714.108 848.863 714.762C847.38 715.118 847.113 717.032 848.43 717.795C856.989 722.756 859.351 729.154 859.893 733.382C860.091 734.927 858.217 735.868 857.086 734.779C850.178 728.137 841.468 727.111 837.779 726.991C836.813 726.96 836.036 727.732 836.053 728.683C836.281 743.151 830.686 752.416 828.104 755.91C827.405 756.853 825.977 756.805 825.338 755.825C821.285 749.61 821.223 733.191 821.297 728.359C821.31 727.506 820.656 726.811 819.795 726.701C812.481 725.77 803.858 731.533 798.616 735.786C797.272 736.875 795.311 735.469 796.009 733.898C800.107 724.685 806.358 719.67 809.755 717.483C810.887 716.754 810.698 715.059 809.438 714.581C808.52 714.233 807.517 713.974 806.46 713.791C806.272 713.757 806.071 713.755 805.88 713.781C799.877 714.586 793.979 715.71 788.255 717.222C788.002 717.288 787.767 717.407 787.567 717.573C774.933 727.925 767 742.829 767 759.401C767 790.661 795.207 816 830 816C864.793 816 893 790.661 893 759.401C893.002 741.025 883.253 724.695 868.15 714.357Z" fill="#D13834"/>
<path d="M780.365 774.447C779.518 774.447 778.693 774.02 778.233 773.252C776.381 770.173 775.168 766.772 774.626 763.144C774.428 761.81 775.363 760.572 776.715 760.377C778.092 760.167 779.327 761.103 779.525 762.434C779.966 765.392 780.993 768.274 782.494 770.768C783.189 771.926 782.803 773.423 781.625 774.108C781.229 774.337 780.793 774.447 780.365 774.447Z" fill="#ED7161"/>
<path d="M777.386 755.044C777.329 755.044 777.27 755.042 777.213 755.037C775.846 754.944 774.819 753.779 774.913 752.438C775.145 749.203 775.819 746.06 776.921 743.09C777.389 741.825 778.805 741.181 780.097 741.637C781.382 742.098 782.041 743.5 781.573 744.765C780.629 747.303 780.053 749.997 779.854 752.774C779.763 754.062 778.676 755.044 777.386 755.044Z" fill="#ED7161"/>
<path d="M417.46 663.516C421.954 664.582 426.865 664.559 432.103 662.349C441.108 658.55 447.511 649.913 447.711 640.141C447.937 629.195 440.992 619.86 431.263 616.447C430.579 606.509 422.322 598.657 412.213 598.657C412.184 598.657 412.155 598.66 412.126 598.66C412.306 597.156 412.205 595.566 411.718 593.906C410.35 589.241 406.251 585.663 401.424 585.089C397.466 584.62 393.833 586.037 391.286 588.554C388.87 586.373 385.694 585.005 382.174 585.005C374.632 585.005 368.519 591.118 368.519 598.66C368.519 598.683 368.525 598.706 368.525 598.73C359.358 599.425 352.132 607.068 352.132 616.412C352.132 617.84 352.317 619.222 352.636 620.552C341.725 621.007 333.013 629.968 333.013 640.99C333.013 644.724 334.027 648.213 335.774 651.229C332.422 653.984 330.283 658.162 330.283 662.838C330.283 669.377 334.47 674.926 340.305 676.989C339.552 703.693 349.081 719.449 367.517 740.671C367.847 741.051 368.18 741.433 368.516 741.813C368.589 741.894 368.661 741.975 368.733 742.056C376.4 750.658 393.691 744.07 389.971 733.164C370.11 674.9 431.33 683.322 431.33 683.322C431.33 683.322 433.08 665.698 417.286 664.872C417.307 664.432 417.327 663.988 417.347 663.548C417.388 663.539 417.42 663.525 417.46 663.516Z" fill="#88C057"/>
<path d="M368.736 742.056C368.664 741.975 368.591 741.894 368.519 741.813C368.183 741.433 367.85 741.054 367.519 740.671C349.081 719.449 339.552 703.693 340.308 676.989C334.473 674.926 330.286 669.377 330.286 662.838C330.286 658.159 332.424 653.984 335.777 651.229C334.032 648.213 333.016 644.724 333.016 640.99C333.016 629.968 341.728 621.004 352.639 620.552C352.32 619.222 352.135 617.84 352.135 616.412C352.135 608.989 356.701 602.655 363.171 600.007C362.742 598.602 362.197 597.185 361.482 595.769C357.912 588.696 351.631 584.255 345.897 585.188C341.171 585.955 337.866 589.812 336.443 594.998C332.48 592.33 328.081 591.292 324.109 592.692C315.594 595.69 312.908 607.934 317.784 619.274C317.799 619.309 317.819 619.338 317.834 619.373C308.603 623.783 306.149 636.893 312.001 648.72C312.856 650.444 313.85 652.028 314.934 653.492C304.738 657.707 302.046 670.507 308.467 681.694C310.518 685.269 313.259 688.213 316.307 690.435C314.864 693.886 315.177 698.13 317.472 702.047C320.551 707.309 326.331 710.432 331.744 710.394C341.255 729.073 352.926 736.319 370.596 743.818C370.782 743.896 370.967 743.974 371.153 744.049C370.284 743.499 369.458 742.867 368.736 742.056Z" fill="#659C35"/>
<path d="M375.664 655.754C375.832 655.383 375.91 654.995 375.916 654.613C377.993 649.386 380.494 645 383.095 641.34C396.087 638.64 405.888 642.699 406.106 642.792C406.485 642.96 406.879 643.035 407.262 643.035C408.377 643.035 409.441 642.386 409.919 641.303C410.562 639.837 409.892 638.127 408.429 637.484C408.027 637.31 400.033 633.897 388.539 634.734C394.154 628.879 399.083 626.222 399.819 625.851C404.028 623.835 410.179 626.442 412.199 627.619C412.659 627.891 413.164 628.018 413.665 628.018C414.656 628.018 415.623 627.509 416.162 626.593C416.973 625.214 416.519 623.441 415.137 622.627C414.806 622.43 408.293 618.666 401.621 619.422C402.191 617.072 403.458 614.934 404.104 614.077C405.074 612.808 404.831 610.991 403.559 610.02C402.293 609.05 400.47 609.287 399.5 610.562C399.317 610.797 395.516 615.838 395.525 621.642C391.309 624.223 380.418 632.049 372.798 647.775C372.387 648.621 371.99 649.531 371.596 650.444C363.692 645.04 364.993 635.427 365.065 634.96C365.312 633.384 364.237 631.904 362.658 631.652C361.082 631.4 359.592 632.477 359.34 634.056C358.5 639.315 359.705 650.151 369.466 655.972C367.311 662.311 365.677 669.879 365.173 678.811C365.115 679.092 365.103 679.364 365.126 679.643C364.825 685.904 365.115 692.848 366.123 700.454C362.449 698.431 360.769 695.473 360.662 695.273C359.905 693.868 358.161 693.332 356.753 694.074C355.339 694.819 354.792 696.571 355.539 697.988C355.693 698.281 359.161 704.693 367.178 707.17C369.267 718.631 372.99 731.501 379.01 745.944C380.995 745.814 382.927 745.289 384.637 744.438C384.628 744.415 384.631 744.388 384.622 744.362C378.303 729.328 374.49 716.085 372.462 704.383C372.451 704.313 372.445 704.246 372.43 704.18C370.924 695.401 370.434 687.512 370.718 680.445C374.774 673.529 386.697 673.251 386.818 673.248C388.418 673.222 389.695 671.91 389.672 670.31C389.649 668.723 388.36 667.454 386.778 667.454C386.766 667.454 386.755 667.454 386.743 667.454C386.271 667.459 378.011 667.639 371.457 671.747C372.257 666.011 373.586 660.929 375.235 656.415C375.406 656.215 375.554 655.998 375.664 655.754Z" fill="#659C35"/>
<path d="M361.46 733.516C365.954 734.582 370.865 734.559 376.103 732.349C385.108 728.55 391.511 719.913 391.711 710.141C391.937 699.195 384.992 689.86 375.263 686.447C374.579 676.509 366.322 668.657 356.213 668.657C356.184 668.657 356.155 668.66 356.126 668.66C356.306 667.156 356.205 665.566 355.718 663.906C354.35 659.241 350.251 655.663 345.424 655.089C341.466 654.62 337.833 656.037 335.286 658.554C332.87 656.373 329.694 655.005 326.174 655.005C318.632 655.005 312.519 661.118 312.519 668.66C312.519 668.683 312.525 668.706 312.525 668.73C303.358 669.425 296.132 677.068 296.132 686.412C296.132 687.84 296.317 689.222 296.636 690.552C285.725 691.007 277.013 699.968 277.013 710.99C277.013 714.724 278.027 718.213 279.774 721.229C276.422 723.984 274.283 728.162 274.283 732.838C274.283 739.377 278.47 744.926 284.305 746.989C283.552 773.693 293.081 789.449 311.517 810.671C311.847 811.051 312.18 811.433 312.516 811.813C312.589 811.894 312.661 811.975 312.733 812.056C320.4 820.658 337.691 814.07 333.971 803.164C314.11 744.9 375.33 753.322 375.33 753.322C375.33 753.322 377.08 735.698 361.286 734.872C361.307 734.432 361.327 733.988 361.347 733.548C361.388 733.539 361.42 733.525 361.46 733.516Z" fill="#88C057"/>
<path d="M312.736 812.056C312.664 811.975 312.591 811.894 312.519 811.813C312.183 811.433 311.85 811.054 311.519 810.671C293.081 789.449 283.552 773.693 284.308 746.989C278.473 744.926 274.286 739.377 274.286 732.838C274.286 728.159 276.424 723.984 279.777 721.229C278.032 718.213 277.016 714.724 277.016 710.99C277.016 699.968 285.728 691.004 296.639 690.552C296.32 689.222 296.135 687.84 296.135 686.412C296.135 678.989 300.701 672.656 307.171 670.007C306.742 668.602 306.197 667.185 305.482 665.769C301.912 658.696 295.631 654.255 289.897 655.188C285.171 655.955 281.866 659.812 280.443 664.998C276.48 662.33 272.081 661.292 268.109 662.692C259.594 665.69 256.908 677.934 261.784 689.274C261.799 689.309 261.819 689.338 261.834 689.373C252.603 693.783 250.149 706.893 256.001 718.72C256.856 720.444 257.85 722.028 258.934 723.492C248.738 727.707 246.046 740.507 252.467 751.694C254.518 755.269 257.259 758.213 260.307 760.435C258.864 763.886 259.177 768.13 261.472 772.047C264.551 777.309 270.331 780.432 275.744 780.394C285.255 799.073 296.926 806.32 314.596 813.818C314.782 813.896 314.967 813.974 315.153 814.049C314.284 813.499 313.458 812.867 312.736 812.056Z" fill="#659C35"/>
<path d="M319.664 725.754C319.832 725.383 319.91 724.995 319.916 724.613C321.993 719.386 324.494 715 327.095 711.34C340.087 708.64 349.888 712.699 350.106 712.792C350.485 712.96 350.879 713.035 351.262 713.035C352.377 713.035 353.44 712.386 353.918 711.303C354.562 709.837 353.892 708.127 352.429 707.484C352.027 707.31 344.033 703.897 332.539 704.734C338.154 698.879 343.083 696.222 343.819 695.851C348.028 693.835 354.179 696.442 356.199 697.619C356.659 697.891 357.163 698.018 357.665 698.018C358.656 698.018 359.623 697.509 360.162 696.593C360.973 695.214 360.519 693.441 359.137 692.627C358.806 692.43 352.293 688.666 345.621 689.422C346.191 687.072 347.458 684.934 348.104 684.077C349.074 682.808 348.831 680.991 347.559 680.02C346.293 679.05 344.47 679.287 343.5 680.562C343.317 680.797 339.516 685.838 339.525 691.642C335.309 694.223 324.418 702.049 316.798 717.775C316.387 718.621 315.99 719.531 315.596 720.444C307.692 715.04 308.993 705.427 309.065 704.96C309.312 703.384 308.237 701.904 306.658 701.652C305.082 701.4 303.592 702.477 303.34 704.056C302.5 709.315 303.705 720.151 313.466 725.972C311.311 732.311 309.677 739.879 309.173 748.811C309.115 749.092 309.103 749.364 309.126 749.643C308.825 755.904 309.115 762.848 310.123 770.454C306.449 768.432 304.769 765.473 304.662 765.273C303.905 763.868 302.161 763.332 300.753 764.074C299.339 764.819 298.792 766.571 299.539 767.988C299.693 768.281 303.161 774.693 311.178 777.17C313.267 788.632 316.99 801.501 323.01 815.944C324.995 815.814 326.927 815.29 328.637 814.438C328.628 814.415 328.631 814.388 328.622 814.362C322.303 799.328 318.49 786.085 316.462 774.383C316.451 774.313 316.445 774.246 316.43 774.18C314.924 765.401 314.434 757.512 314.718 750.445C318.774 743.529 330.697 743.251 330.818 743.248C332.418 743.222 333.695 741.91 333.672 740.31C333.649 738.723 332.36 737.454 330.778 737.454C330.766 737.454 330.755 737.454 330.743 737.454C330.271 737.459 322.011 737.639 315.457 741.747C316.257 736.011 317.586 730.929 319.235 726.415C319.406 726.215 319.554 725.998 319.664 725.754Z" fill="#659C35"/>
<path d="M320.417 640.23C320.417 640.23 299.584 605.085 329.023 582.771C329.023 582.771 335.715 576.984 342.122 581.432C348.421 585.809 347.083 595.579 340.405 600.443C334.382 604.831 326.736 615.405 320.417 640.23Z" fill="#88C057"/>
<path d="M320.417 640.23C320.417 640.23 285.813 618.856 265.455 646.339C265.455 646.339 257.302 655.408 260.204 663.601C262.901 671.221 273.525 671.421 277.543 664.41C281.948 656.727 292.952 646.202 320.417 640.23Z" fill="#88C057"/>
<path d="M330.834 583.508C330.834 583.508 331.079 583.317 331.418 583.067C330.763 582.335 330.057 581.626 329.231 580.982C321.628 575.048 315.744 579.803 315.744 579.803C289.244 597.419 318.042 638.419 318.042 638.419C318.179 636.446 318.356 634.601 318.544 632.815C314.266 621.091 310.194 599.153 330.834 583.508Z" fill="#88C057"/>
<path d="M265.455 646.336C281.157 625.135 305.328 633.006 315.562 637.713C315.793 637.705 316.001 637.687 316.231 637.679C316.231 637.679 275.692 608.419 259.745 633.251C259.745 633.251 252.977 641.164 257.638 650.334C258.438 651.909 259.475 653.267 260.645 654.4C262.337 649.813 265.455 646.336 265.455 646.336Z" fill="#A4E869"/>
<path d="M272.927 595.312C266.198 605.697 276.358 618.879 276.358 618.879C278.978 621.066 281.797 623.051 284.694 624.882C297.932 626.698 312.242 635.324 318.677 639.612C319.571 639.866 320.355 640.079 320.918 640.228C317.581 635.258 308.551 620.784 306.213 606.557C303.872 603.026 301.301 599.66 298.51 596.73C283.557 581.025 272.927 595.312 272.927 595.312Z" fill="#659C35"/>
<path d="M320.417 640.23C320.417 640.23 299.584 605.085 329.023 582.771C329.023 582.771 335.715 576.984 342.122 581.432C348.421 585.809 347.083 595.579 340.405 600.443C334.382 604.831 326.736 615.405 320.417 640.23Z" fill="#A4E869"/>
<path d="M317.265 638.263C318.823 639.063 319.705 639.607 319.705 639.607C319.705 639.607 318.919 638.274 317.874 635.984C317.669 636.728 317.467 637.477 317.265 638.263Z" fill="#F2681C"/>
<path d="M335.991 619.944C332.654 618.745 329.345 618.819 326.226 619.568C323.98 624.918 321.77 631.488 319.705 639.607C310.658 641.574 303.428 644.038 297.602 646.729C296.312 650.439 295.854 654.497 297.329 658.603C301.959 671.489 383.484 728.151 411.909 738.747C414.583 739.744 416.679 737.645 415.682 734.974C405.086 706.549 348.874 624.574 335.991 619.944Z" fill="#ED8F20"/>
<path d="M388.9 715.548C387.983 717.467 386.864 719.332 385.574 721.092C384.64 722.362 384.919 724.142 386.186 725.07C387.454 725.999 389.236 725.725 390.165 724.458C391.665 722.413 392.97 720.241 394.037 718.002C394.225 717.607 394.316 717.188 394.316 716.775C394.316 715.713 393.718 714.693 392.696 714.204C391.278 713.529 389.575 714.13 388.9 715.548Z" fill="#DD7017"/>
<path d="M334.701 627.484C332.48 633.311 328.487 638.718 322.835 643.551C321.639 644.573 321.499 646.37 322.522 647.566C323.544 648.762 325.341 648.901 326.537 647.879C332.921 642.42 337.46 636.241 340.026 629.512C340.151 629.179 340.214 628.837 340.214 628.498C340.214 627.351 339.514 626.271 338.377 625.836C336.908 625.277 335.262 626.015 334.701 627.484Z" fill="#DD7017"/>
<path d="M312.273 674.297C312.561 673.189 313.492 672.301 314.705 672.167C319.352 671.657 325.375 669.256 328.351 665.033C329.256 663.749 331.033 663.442 332.32 664.35C333.106 664.902 333.525 665.785 333.525 666.679C333.525 667.246 333.357 667.818 333.004 668.32C328.986 674.018 321.764 676.851 316.354 677.671" fill="#DD7017"/>
<path d="M333.004 668.319C333.357 667.821 333.525 667.249 333.525 666.679C333.525 665.785 333.106 664.902 332.32 664.35C331.033 663.444 329.259 663.749 328.351 665.033C325.372 669.254 319.349 671.657 314.705 672.167C313.495 672.3 312.561 673.189 312.273 674.297C313.574 675.393 314.924 676.515 316.351 677.671C321.764 676.851 328.986 674.018 333.004 668.319Z" fill="#DD7017"/>
<path d="M365.326 652.581C364.455 657.963 361.619 665.022 356.012 668.977C354.727 669.883 352.951 669.575 352.042 668.291C351.137 667.01 351.444 665.23 352.728 664.321C356.946 661.346 359.352 655.323 359.862 650.676C359.998 649.428 360.93 648.494 362.089 648.238" fill="#DD7017"/>
<path d="M359.86 650.671C359.35 655.321 356.947 661.344 352.727 664.317C351.442 665.222 351.132 667.005 352.04 668.286C352.946 669.573 354.723 669.881 356.01 668.972C361.617 665.017 364.453 657.958 365.325 652.576C364.234 651.098 363.158 649.648 362.09 648.233C360.928 648.489 359.997 649.426 359.86 650.671Z" fill="#DD7017"/>
<path d="M342.065 696.981C342.333 695.845 343.272 694.931 344.503 694.794C347.421 694.475 351.192 692.986 353.031 690.383C353.937 689.099 355.714 688.791 357.001 689.7C357.787 690.255 358.206 691.135 358.206 692.029C358.206 692.596 358.037 693.168 357.684 693.669C355.016 697.451 350.394 699.478 346.678 700.216" fill="#DD7017"/>
<path d="M357.684 693.662C358.037 693.164 358.206 692.591 358.206 692.022C358.206 691.128 357.787 690.248 357.001 689.693C355.717 688.787 353.94 689.092 353.031 690.376C351.192 692.982 347.424 694.468 344.503 694.787C343.27 694.921 342.33 695.835 342.065 696.974C343.589 698.053 345.126 699.13 346.678 700.209C350.394 699.471 355.016 697.444 357.684 693.662Z" fill="#DD7017"/>
<path d="M389.441 687.673C388.937 691.537 386.913 696.911 382.707 699.875C381.419 700.781 379.645 700.476 378.737 699.192C377.826 697.905 378.139 696.128 379.42 695.222C382.026 693.383 383.512 689.615 383.831 686.696C384.002 685.133 385.409 684.005 386.972 684.176C387.061 684.185 387.135 684.233 387.22 684.25" fill="#DD7017"/>
<path d="M383.837 686.698C383.518 689.617 382.029 693.387 379.426 695.224C378.142 696.13 377.832 697.904 378.743 699.194C379.648 700.478 381.425 700.785 382.712 699.877C386.918 696.91 388.943 691.539 389.447 687.675C388.715 686.536 387.972 685.394 387.229 684.252C387.143 684.235 387.069 684.187 386.981 684.178C385.418 684.004 384.008 685.135 383.837 686.698Z" fill="#DD7017"/>
<path d="M250.417 689.23C250.417 689.23 229.584 654.085 259.023 631.771C259.023 631.771 265.715 625.984 272.122 630.432C278.421 634.809 277.083 644.579 270.405 649.443C264.382 653.831 256.736 664.405 250.417 689.23Z" fill="#88C057"/>
<path d="M250.417 689.23C250.417 689.23 215.813 667.856 195.455 695.339C195.455 695.339 187.302 704.408 190.204 712.601C192.901 720.221 203.525 720.421 207.543 713.41C211.948 705.727 222.952 695.202 250.417 689.23Z" fill="#88C057"/>
<path d="M260.834 632.508C260.834 632.508 261.079 632.317 261.418 632.067C260.763 631.335 260.057 630.626 259.231 629.982C251.628 624.048 245.744 628.803 245.744 628.803C219.244 646.419 248.042 687.419 248.042 687.419C248.179 685.446 248.356 683.601 248.544 681.815C244.266 670.091 240.194 648.153 260.834 632.508Z" fill="#88C057"/>
<path d="M195.455 695.336C211.157 674.135 235.328 682.006 245.562 686.713C245.793 686.705 246.001 686.687 246.231 686.679C246.231 686.679 205.692 657.419 189.745 682.251C189.745 682.251 182.977 690.164 187.638 699.334C188.438 700.909 189.475 702.267 190.645 703.4C192.337 698.813 195.455 695.336 195.455 695.336Z" fill="#A4E869"/>
<path d="M202.927 644.312C196.198 654.697 206.359 667.879 206.359 667.879C208.978 670.066 211.798 672.051 214.694 673.882C227.932 675.698 242.242 684.324 248.677 688.612C249.572 688.866 250.355 689.079 250.918 689.228C247.581 684.258 238.551 669.784 236.213 655.557C233.872 652.026 231.301 648.66 228.51 645.73C213.557 630.025 202.927 644.312 202.927 644.312Z" fill="#659C35"/>
<path d="M250.417 689.23C250.417 689.23 229.584 654.085 259.023 631.771C259.023 631.771 265.715 625.984 272.122 630.432C278.421 634.809 277.083 644.579 270.405 649.443C264.382 653.831 256.736 664.405 250.417 689.23Z" fill="#A4E869"/>
<path d="M247.265 687.263C248.823 688.063 249.705 688.607 249.705 688.607C249.705 688.607 248.919 687.274 247.874 684.984C247.669 685.728 247.467 686.477 247.265 687.263Z" fill="#F2681C"/>
<path d="M265.991 668.944C262.654 667.745 259.345 667.819 256.226 668.568C253.98 673.918 251.77 680.488 249.705 688.607C240.658 690.574 233.428 693.038 227.602 695.729C226.312 699.439 225.854 703.497 227.329 707.603C231.959 720.489 313.484 777.151 341.909 787.747C344.583 788.744 346.679 786.645 345.682 783.974C335.086 755.549 278.874 673.574 265.991 668.944Z" fill="#ED8F20"/>
<path d="M318.9 764.548C317.983 766.467 316.864 768.332 315.574 770.092C314.64 771.362 314.919 773.142 316.186 774.07C317.454 774.999 319.236 774.725 320.165 773.458C321.665 771.413 322.97 769.241 324.037 767.002C324.225 766.607 324.316 766.188 324.316 765.775C324.316 764.713 323.718 763.693 322.696 763.204C321.278 762.529 319.575 763.13 318.9 764.548Z" fill="#DD7017"/>
<path d="M264.701 676.484C262.48 682.311 258.487 687.718 252.835 692.551C251.639 693.573 251.499 695.37 252.522 696.566C253.544 697.762 255.341 697.901 256.537 696.879C262.921 691.42 267.46 685.241 270.026 678.512C270.151 678.179 270.214 677.837 270.214 677.498C270.214 676.351 269.514 675.271 268.377 674.836C266.908 674.277 265.262 675.015 264.701 676.484Z" fill="#DD7017"/>
<path d="M242.273 723.297C242.561 722.189 243.492 721.3 244.705 721.167C249.352 720.657 255.375 718.256 258.351 714.033C259.256 712.749 261.033 712.441 262.32 713.35C263.106 713.902 263.525 714.785 263.525 715.679C263.525 716.246 263.357 716.818 263.004 717.319C258.986 723.018 251.764 725.851 246.354 726.671" fill="#DD7017"/>
<path d="M263.004 717.319C263.357 716.821 263.525 716.249 263.525 715.679C263.525 714.785 263.106 713.902 262.32 713.35C261.033 712.444 259.259 712.749 258.351 714.033C255.372 718.254 249.349 720.657 244.705 721.167C243.495 721.3 242.561 722.189 242.273 723.297C243.574 724.393 244.924 725.515 246.351 726.671C251.764 725.851 258.986 723.018 263.004 717.319Z" fill="#DD7017"/>
<path d="M295.326 701.581C294.455 706.963 291.619 714.022 286.012 717.977C284.728 718.883 282.951 718.575 282.042 717.291C281.137 716.01 281.444 714.23 282.728 713.321C286.946 710.346 289.352 704.323 289.862 699.676C289.999 698.428 290.93 697.494 292.089 697.238" fill="#DD7017"/>
<path d="M289.86 699.671C289.35 704.321 286.947 710.344 282.727 713.317C281.442 714.222 281.132 716.005 282.04 717.286C282.946 718.573 284.723 718.881 286.01 717.972C291.617 714.017 294.453 706.958 295.325 701.576C294.234 700.098 293.158 698.648 292.09 697.233C290.928 697.489 289.997 698.426 289.86 699.671Z" fill="#DD7017"/>
<path d="M272.065 745.981C272.333 744.845 273.272 743.931 274.503 743.794C277.421 743.475 281.192 741.986 283.031 739.383C283.937 738.099 285.714 737.791 287.001 738.7C287.787 739.255 288.205 740.135 288.205 741.029C288.205 741.596 288.037 742.168 287.684 742.669C285.016 746.451 280.394 748.478 276.678 749.216" fill="#DD7017"/>
<path d="M287.684 742.662C288.037 742.164 288.205 741.591 288.205 741.022C288.205 740.128 287.787 739.248 287.001 738.693C285.717 737.787 283.94 738.092 283.031 739.376C281.192 741.982 277.424 743.468 274.503 743.787C273.27 743.921 272.33 744.835 272.065 745.974C273.588 747.053 275.126 748.13 276.678 749.209C280.394 748.471 285.016 746.444 287.684 742.662Z" fill="#DD7017"/>
<path d="M319.441 736.673C318.937 740.537 316.913 745.911 312.707 748.875C311.419 749.781 309.645 749.476 308.737 748.192C307.826 746.905 308.139 745.128 309.42 744.222C312.026 742.383 313.512 738.615 313.831 735.696C314.002 734.133 315.409 733.005 316.972 733.176C317.061 733.185 317.135 733.233 317.22 733.25" fill="#DD7017"/>
<path d="M313.837 735.698C313.518 738.617 312.029 742.387 309.426 744.224C308.142 745.13 307.832 746.904 308.743 748.194C309.648 749.478 311.425 749.785 312.712 748.877C316.918 745.91 318.943 740.539 319.447 736.675C318.715 735.536 317.972 734.394 317.229 733.252C317.143 733.235 317.069 733.187 316.981 733.178C315.418 733.004 314.008 734.135 313.837 735.698Z" fill="#DD7017"/>
<path d="M313.224 703.622C306.881 699.618 294.967 694.04 283.521 699.194C282.42 699.691 281.164 698.909 281.164 697.714V687.354C281.167 684.96 279.515 683 277.498 683H271.994C269.976 683 268.325 684.96 268.325 687.354V698.329C268.325 699.365 267.371 700.15 266.339 699.94C261.692 698.997 249.625 697.529 238.085 704.317C236.505 705.245 237.421 707.684 239.234 707.357C244.606 706.389 251.677 705.723 256.456 707.581C257.708 708.066 257.889 709.754 256.763 710.48C253.368 712.662 247.107 717.68 243.004 726.906C242.306 728.476 244.267 729.883 245.611 728.793C250.853 724.541 259.476 718.78 266.79 719.708C267.651 719.818 268.305 720.511 268.292 721.366C268.218 726.199 268.28 742.617 272.333 748.832C272.972 749.812 274.403 749.861 275.099 748.917C277.681 745.423 283.279 736.158 283.048 721.691C283.034 720.74 283.808 719.967 284.774 719.999C288.463 720.116 297.173 721.142 304.081 727.786C305.212 728.876 307.086 727.935 306.888 726.389C306.346 722.159 303.982 715.761 295.423 710.8C294.123 710.046 294.343 708.13 295.806 707.776C298.762 707.062 303.858 706.382 312.256 706.655C313.962 706.706 314.657 704.526 313.224 703.622Z" fill="#88C057"/>
<path d="M315.15 707.357C314.92 707.198 314.652 707.098 314.373 707.064C313.382 706.945 312.39 706.833 311.399 706.701C311.045 706.667 310.689 706.64 310.337 706.606C303.122 706.489 298.594 707.108 295.863 707.762C294.38 708.118 294.113 710.032 295.43 710.795C303.989 715.756 306.351 722.154 306.893 726.382C307.091 727.927 305.217 728.868 304.086 727.779C297.178 721.137 288.468 720.111 284.779 719.991C283.813 719.96 283.036 720.732 283.053 721.683C283.281 736.151 277.686 745.416 275.104 748.91C274.405 749.853 272.977 749.805 272.338 748.825C268.285 742.61 268.223 726.191 268.297 721.359C268.31 720.506 267.656 719.811 266.795 719.701C259.481 718.77 250.858 724.533 245.616 728.786C244.272 729.875 242.311 728.469 243.009 726.898C247.107 717.685 253.358 712.67 256.755 710.483C257.887 709.754 257.698 708.059 256.438 707.581C255.52 707.233 254.517 706.974 253.46 706.791C253.272 706.757 253.071 706.755 252.88 706.781C246.877 707.586 240.979 708.71 235.255 710.222C235.002 710.288 234.767 710.407 234.567 710.573C221.933 720.925 214 735.829 214 752.401C214 783.661 242.207 809 277 809C311.793 809 340 783.661 340 752.401C340.002 734.025 330.253 717.695 315.15 707.357Z" fill="#D13834"/>
<path d="M227.365 767.447C226.518 767.447 225.693 767.02 225.233 766.252C223.381 763.173 222.168 759.772 221.626 756.144C221.428 754.81 222.363 753.572 223.715 753.377C225.092 753.167 226.327 754.103 226.525 755.434C226.966 758.392 227.993 761.274 229.494 763.768C230.189 764.926 229.803 766.423 228.625 767.108C228.229 767.337 227.793 767.447 227.365 767.447Z" fill="#ED7161"/>
<path d="M224.386 748.044C224.329 748.044 224.27 748.042 224.213 748.037C222.846 747.944 221.819 746.779 221.913 745.438C222.146 742.203 222.819 739.06 223.921 736.09C224.389 734.825 225.805 734.181 227.097 734.637C228.382 735.098 229.041 736.5 228.573 737.765C227.629 740.303 227.053 742.997 226.855 745.774C226.763 747.062 225.676 748.044 224.386 748.044Z" fill="#ED7161"/>
<path d="M795.46 649.516C799.954 650.582 804.865 650.559 810.103 648.349C819.108 644.55 825.511 635.913 825.711 626.141C825.937 615.195 818.992 605.86 809.263 602.447C808.579 592.509 800.322 584.657 790.213 584.657C790.184 584.657 790.155 584.66 790.126 584.66C790.306 583.156 790.205 581.566 789.718 579.906C788.35 575.241 784.251 571.663 779.424 571.089C775.466 570.62 771.833 572.037 769.286 574.554C766.87 572.373 763.694 571.005 760.174 571.005C752.632 571.005 746.519 577.118 746.519 584.66C746.519 584.683 746.525 584.706 746.525 584.73C737.358 585.425 730.132 593.068 730.132 602.412C730.132 603.84 730.317 605.222 730.636 606.552C719.725 607.007 711.013 615.968 711.013 626.99C711.013 630.724 712.027 634.213 713.774 637.229C710.422 639.984 708.283 644.162 708.283 648.838C708.283 655.377 712.47 660.926 718.305 662.989C717.552 689.693 727.081 705.449 745.517 726.671C745.847 727.051 746.18 727.433 746.516 727.813C746.589 727.894 746.661 727.975 746.733 728.056C754.4 736.658 771.691 730.07 767.971 719.164C748.11 660.9 809.33 669.322 809.33 669.322C809.33 669.322 811.08 651.698 795.286 650.872C795.307 650.432 795.327 649.988 795.347 649.548C795.388 649.539 795.42 649.525 795.46 649.516Z" fill="#88C057"/>
<path d="M746.736 728.056C746.664 727.975 746.591 727.894 746.519 727.813C746.183 727.433 745.85 727.054 745.519 726.671C727.081 705.448 717.552 689.693 718.308 662.989C712.473 660.926 708.286 655.377 708.286 648.838C708.286 644.159 710.425 639.984 713.777 637.229C712.033 634.213 711.016 630.724 711.016 626.99C711.016 615.968 719.728 607.004 730.639 606.552C730.32 605.222 730.135 603.84 730.135 602.412C730.135 594.989 734.701 588.655 741.171 586.007C740.742 584.602 740.197 583.185 739.482 581.769C735.912 574.696 729.631 570.255 723.897 571.188C719.171 571.955 715.866 575.812 714.443 580.998C710.48 578.329 706.081 577.292 702.109 578.692C693.594 581.69 690.908 593.934 695.784 605.274C695.799 605.309 695.819 605.338 695.834 605.373C686.603 609.783 684.149 622.893 690.001 634.72C690.856 636.444 691.85 638.028 692.934 639.491C682.738 643.707 680.046 656.507 686.467 667.694C688.518 671.269 691.259 674.213 694.307 676.435C692.864 679.886 693.177 684.13 695.472 688.047C698.551 693.309 704.331 696.432 709.744 696.394C719.255 715.073 730.926 722.319 748.596 729.818C748.782 729.896 748.967 729.974 749.153 730.049C748.284 729.499 747.458 728.867 746.736 728.056Z" fill="#659C35"/>
<path d="M753.664 641.754C753.832 641.383 753.91 640.995 753.916 640.613C755.993 635.386 758.494 631 761.095 627.34C774.087 624.64 783.888 628.699 784.106 628.792C784.485 628.96 784.879 629.035 785.262 629.035C786.377 629.035 787.441 628.386 787.919 627.303C788.562 625.837 787.892 624.127 786.429 623.484C786.027 623.31 778.033 619.897 766.539 620.734C772.154 614.879 777.083 612.222 777.819 611.851C782.028 609.835 788.179 612.442 790.199 613.619C790.659 613.891 791.164 614.018 791.665 614.018C792.656 614.018 793.623 613.509 794.162 612.593C794.973 611.214 794.519 609.441 793.137 608.627C792.806 608.43 786.293 604.666 779.621 605.422C780.191 603.072 781.458 600.934 782.104 600.077C783.074 598.808 782.831 596.991 781.559 596.02C780.293 595.05 778.47 595.287 777.5 596.562C777.317 596.797 773.516 601.838 773.525 607.641C769.309 610.223 758.418 618.049 750.798 633.775C750.387 634.621 749.99 635.531 749.596 636.444C741.692 631.04 742.993 621.427 743.065 620.96C743.312 619.384 742.237 617.904 740.658 617.652C739.082 617.4 737.592 618.477 737.34 620.056C736.5 625.315 737.705 636.151 747.466 641.972C745.311 648.311 743.677 655.879 743.173 664.811C743.115 665.092 743.103 665.364 743.126 665.643C742.825 671.904 743.115 678.848 744.123 686.454C740.449 684.432 738.769 681.473 738.662 681.273C737.905 679.868 736.161 679.332 734.753 680.074C733.339 680.819 732.792 682.571 733.539 683.988C733.693 684.281 737.161 690.693 745.178 693.17C747.267 704.632 750.99 717.501 757.01 731.944C758.995 731.814 760.927 731.29 762.637 730.438C762.628 730.415 762.631 730.388 762.622 730.362C756.303 715.328 752.49 702.085 750.462 690.383C750.451 690.313 750.445 690.246 750.43 690.18C748.924 681.401 748.434 673.512 748.718 666.445C752.774 659.529 764.697 659.251 764.818 659.248C766.418 659.222 767.695 657.91 767.672 656.31C767.649 654.723 766.36 653.454 764.778 653.454C764.766 653.454 764.755 653.454 764.743 653.454C764.271 653.459 756.011 653.639 749.457 657.747C750.257 652.011 751.586 646.929 753.235 642.415C753.406 642.215 753.554 641.998 753.664 641.754Z" fill="#659C35"/>
<path d="M774.769 649.417C774.769 649.417 809.915 628.584 832.229 658.023C832.229 658.023 838.015 664.715 833.567 671.122C829.191 677.421 819.42 676.083 814.557 669.405C810.168 663.382 799.595 655.736 774.769 649.417Z" fill="#88C057"/>
<path d="M774.769 649.417C774.769 649.417 796.144 614.813 768.661 594.455C768.661 594.455 759.591 586.302 751.399 589.204C743.778 591.901 743.579 602.525 750.59 606.543C758.273 610.948 768.798 621.952 774.769 649.417Z" fill="#88C057"/>
<path d="M831.491 659.834C831.491 659.834 831.682 660.079 831.933 660.418C832.665 659.763 833.374 659.056 834.017 658.231C839.952 650.627 835.196 644.744 835.196 644.744C817.581 618.244 776.58 647.042 776.58 647.042C778.554 647.179 780.399 647.356 782.185 647.543C793.908 643.266 815.847 639.194 831.491 659.834Z" fill="#88C057"/>
<path d="M768.664 594.455C789.865 610.157 781.994 634.328 777.287 644.562C777.295 644.793 777.312 645.001 777.321 645.231C777.321 645.231 806.58 604.692 781.749 588.745C781.749 588.745 773.835 581.977 764.666 586.638C763.091 587.438 761.733 588.475 760.599 589.645C765.187 591.337 768.664 594.455 768.664 594.455Z" fill="#A4E869"/>
<path d="M819.688 601.927C809.303 595.198 796.121 605.359 796.121 605.359C793.934 607.978 791.949 610.797 790.118 613.694C788.301 626.932 779.676 641.242 775.387 647.677C775.134 648.571 774.92 649.355 774.772 649.918C779.741 646.581 794.216 637.551 808.443 635.213C811.974 632.872 815.34 630.301 818.27 627.51C833.975 612.557 819.688 601.927 819.688 601.927Z" fill="#659C35"/>
<path d="M774.769 649.417C774.769 649.417 809.915 628.584 832.229 658.023C832.229 658.023 838.015 664.715 833.567 671.122C829.191 677.421 819.42 676.083 814.557 669.405C810.168 663.382 799.595 655.736 774.769 649.417Z" fill="#A4E869"/>
<path d="M776.737 646.265C775.937 647.823 775.393 648.705 775.393 648.705C775.393 648.705 776.726 647.919 779.015 646.874C778.272 646.669 777.523 646.467 776.737 646.265Z" fill="#F2681C"/>
<path d="M795.056 664.991C796.255 661.654 796.181 658.345 795.432 655.226C790.081 652.98 783.512 650.77 775.393 648.705C773.425 639.658 770.962 632.428 768.271 626.602C764.561 625.312 760.503 624.854 756.396 626.329C743.511 630.959 686.848 712.484 676.252 740.909C675.256 743.583 677.354 745.679 680.026 744.682C708.451 734.086 790.426 677.874 795.056 664.991Z" fill="#ED8F20"/>
<path d="M699.452 717.9C697.533 716.983 695.668 715.864 693.908 714.574C692.638 713.64 690.858 713.919 689.929 715.186C689.001 716.454 689.275 718.236 690.542 719.165C692.586 720.665 694.759 721.969 696.997 723.037C697.393 723.225 697.812 723.316 698.225 723.316C699.287 723.316 700.306 722.718 700.796 721.696C701.471 720.278 700.87 718.575 699.452 717.9Z" fill="#DD7017"/>
<path d="M787.515 663.701C781.689 661.48 776.281 657.487 771.449 651.835C770.427 650.639 768.63 650.499 767.434 651.522C766.238 652.544 766.098 654.341 767.121 655.537C772.58 661.921 778.759 666.46 785.488 669.026C785.821 669.151 786.163 669.214 786.502 669.214C787.649 669.214 788.728 668.514 789.164 667.377C789.722 665.908 788.985 664.262 787.515 663.701Z" fill="#DD7017"/>
<path d="M740.703 641.273C741.811 641.561 742.699 642.492 742.833 643.705C743.343 648.352 745.743 654.375 749.966 657.351C751.251 658.256 751.558 660.033 750.65 661.32C750.097 662.106 749.215 662.525 748.32 662.525C747.754 662.525 747.181 662.357 746.68 662.004C740.982 657.986 738.149 650.764 737.328 645.354" fill="#DD7017"/>
<path d="M746.68 662.004C747.178 662.357 747.751 662.525 748.32 662.525C749.215 662.525 750.097 662.106 750.65 661.32C751.555 660.033 751.251 658.259 749.966 657.351C745.746 654.372 743.343 648.349 742.833 643.705C742.699 642.495 741.811 641.561 740.703 641.273C739.607 642.574 738.485 643.924 737.328 645.351C738.149 650.764 740.982 657.986 746.68 662.004Z" fill="#DD7017"/>
<path d="M762.419 694.326C757.037 693.455 749.978 690.619 746.022 685.012C745.117 683.727 745.424 681.95 746.709 681.042C747.99 680.137 749.77 680.444 750.678 681.728C753.654 685.946 759.677 688.352 764.324 688.862C765.571 688.998 766.505 689.93 766.762 691.089" fill="#DD7017"/>
<path d="M764.329 688.86C759.679 688.35 753.656 685.947 750.683 681.727C749.778 680.442 747.995 680.132 746.714 681.04C745.426 681.946 745.119 683.723 746.027 685.01C749.983 690.617 757.042 693.453 762.424 694.325C763.902 693.234 765.351 692.157 766.767 691.09C766.51 689.928 765.573 688.997 764.329 688.86Z" fill="#DD7017"/>
<path d="M718.019 671.065C719.155 671.333 720.069 672.272 720.206 673.503C720.525 676.421 722.014 680.192 724.617 682.031C725.901 682.937 726.208 684.714 725.3 686.001C724.745 686.787 723.865 687.206 722.971 687.206C722.404 687.206 721.832 687.037 721.33 686.684C717.549 684.016 715.521 679.394 714.784 675.678" fill="#DD7017"/>
<path d="M721.337 686.684C721.836 687.037 722.408 687.206 722.978 687.206C723.872 687.206 724.752 686.787 725.307 686.001C726.213 684.717 725.908 682.94 724.624 682.031C722.018 680.192 720.532 676.424 720.213 673.503C720.079 672.27 719.165 671.33 718.026 671.065C716.946 672.588 715.87 674.126 714.791 675.678C715.528 679.394 717.556 684.016 721.337 686.684Z" fill="#DD7017"/>
<path d="M727.327 718.441C723.462 717.937 718.089 715.913 715.124 711.707C714.219 710.419 714.524 708.645 715.808 707.737C717.095 706.826 718.872 707.139 719.777 708.42C721.617 711.026 725.384 712.512 728.303 712.831C729.867 713.002 730.994 714.409 730.823 715.972C730.815 716.061 730.767 716.135 730.749 716.22" fill="#DD7017"/>
<path d="M728.302 712.837C725.383 712.518 721.612 711.029 719.776 708.426C718.87 707.142 717.096 706.832 715.806 707.743C714.522 708.648 714.214 710.425 715.123 711.712C718.09 715.918 723.461 717.943 727.325 718.447C728.464 717.715 729.606 716.972 730.748 716.229C730.765 716.143 730.813 716.069 730.822 715.981C730.995 714.418 729.865 713.008 728.302 712.837Z" fill="#DD7017"/>
<path d="M453.576 637.224C382.969 637.224 325.736 694.457 325.736 765.05V795H397.251L408.117 786.22L418.378 795H473.705L588.355 637.224H453.576Z" fill="#D7D9CC"/>
<path d="M646.421 637.224H588.355L529.997 684.997L473.705 730.733V795H681.62L692.183 786.924L702.746 795H774.261V765.05C774.261 694.458 717.027 637.224 646.421 637.224Z" fill="white"/>
<path d="M397.25 795V731.885C397.25 726.051 401.979 721.322 407.812 721.322C413.646 721.322 418.375 726.051 418.375 731.885V795H397.25Z" fill="#BDBFB4"/>
<path d="M692.182 721.321C686.348 721.321 681.619 726.05 681.619 731.884V795H702.746V731.884C702.746 726.05 698.016 721.321 692.182 721.321Z" fill="#D7D9CC"/>
<path d="M522.716 762.171C529.866 762.171 535.662 756.375 535.662 749.225C535.662 742.075 529.866 736.279 522.716 736.279C515.567 736.279 509.771 742.075 509.771 749.225C509.771 756.375 515.567 762.171 522.716 762.171Z" fill="#D7D9CC"/>
<path d="M630.885 762.171C638.035 762.171 643.831 756.375 643.831 749.225C643.831 742.075 638.035 736.279 630.885 736.279C623.736 736.279 617.94 742.075 617.94 749.225C617.94 756.375 623.736 762.171 630.885 762.171Z" fill="#D7D9CC"/>
<path d="M779.75 407.739L549.997 386.673L320.246 407.739V504.958H779.75V407.739Z" fill="#A8503C"/>
<path d="M756.224 553.873C782.913 553.873 804.548 532.238 804.548 505.549C804.548 478.86 782.913 457.224 756.224 457.224C729.535 457.224 707.899 478.86 707.899 505.549C707.899 532.238 729.535 553.873 756.224 553.873Z" fill="#E3B098"/>
<path d="M549.997 685.872C666.187 685.872 760.377 598.303 760.377 490.281C760.377 382.259 666.187 294.69 549.997 294.69C433.808 294.69 339.617 382.259 339.617 490.281C339.617 598.303 433.808 685.872 549.997 685.872Z" fill="#FBC4AC"/>
<path d="M381.866 490.285C381.866 388.893 464.853 305.525 571.126 295.674C564.176 295.029 557.13 294.697 549.999 294.697C445.917 294.697 359.502 364.966 342.614 457.255C316.465 457.872 295.453 479.248 295.453 505.546C295.453 532.232 317.087 553.865 343.772 553.865C346.415 553.865 348.719 553.645 350.748 553.237C378.936 630.374 457.492 685.876 549.997 685.876C557.129 685.876 564.175 685.543 571.124 684.899C464.853 675.047 381.866 591.679 381.866 490.285Z" fill="#E3B098"/>
<path d="M714.404 95C677.802 95 646.318 116.83 632.201 148.169C618.083 116.83 586.601 95 549.997 95C513.394 95 481.911 116.83 467.795 148.169C453.678 116.83 422.194 95 385.592 95C335.808 95 295.453 135.357 295.453 185.139C295.453 209.201 304.881 231.06 320.244 247.224L320.246 247.225V365.61L549.996 386.673L779.748 365.61V247.225L779.749 247.224C795.112 231.06 804.54 209.2 804.54 185.139C804.543 135.357 764.186 95 714.404 95Z" fill="white"/>
<path d="M362.5 365.61V247.225H362.499C347.135 231.061 337.707 209.2 337.707 185.14C337.707 142.63 367.143 107.018 406.737 97.5115C399.954 95.8777 392.877 95 385.592 95C335.808 95 295.453 135.357 295.453 185.139C295.453 209.2 304.881 231.06 320.244 247.224H320.246V365.61L549.996 386.673L571.123 384.736L362.5 365.61Z" fill="#D7D9CC"/>
<path d="M549.997 567.183C573.784 596.916 608.831 584.594 627.316 574.829C631.799 572.461 632.119 566.235 627.964 563.329C617.368 555.914 611.199 539.68 602.447 531.522C588.85 518.849 565.425 511.15 549.997 525.138C534.57 511.15 511.145 518.849 497.548 531.522C488.795 539.679 482.626 555.914 472.031 563.329C467.877 566.235 468.196 572.461 472.679 574.829C491.164 584.594 526.212 596.915 549.997 567.183Z" fill="#A8503C"/>
<path d="M665.961 514.928C660.127 514.928 655.398 510.198 655.398 504.365V481.817C655.398 475.983 660.127 471.254 665.961 471.254C671.795 471.254 676.524 475.983 676.524 481.817V504.365C676.525 510.198 671.795 514.928 665.961 514.928Z" fill="#3B484A"/>
<path d="M681.316 548.071H650.606C644.772 548.071 640.043 543.342 640.043 537.508C640.043 531.674 644.772 526.945 650.606 526.945H681.316C687.149 526.945 691.879 531.674 691.879 537.508C691.88 543.34 687.149 548.071 681.316 548.071Z" fill="#F98084"/>
<path d="M434.035 514.928C428.201 514.928 423.472 510.198 423.472 504.365V481.817C423.472 475.983 428.201 471.254 434.035 471.254C439.869 471.254 444.598 475.983 444.598 481.817V504.365C444.598 510.198 439.869 514.928 434.035 514.928Z" fill="#3B484A"/>
<path d="M449.391 548.071H418.68C412.846 548.071 408.117 543.342 408.117 537.508C408.117 531.674 412.846 526.945 418.68 526.945H449.391C455.225 526.945 459.954 531.674 459.954 537.508C459.954 543.34 455.225 548.071 449.391 548.071Z" fill="#F98084"/>
<path d="M549.997 334.622C544.164 334.622 539.434 329.892 539.434 324.059V206.15C539.434 200.316 544.164 195.587 549.997 195.587C555.831 195.587 560.56 200.316 560.56 206.15V324.059C560.562 329.891 555.831 334.622 549.997 334.622Z" fill="#D7D9CC"/>
<path d="M444.111 334.622C438.277 334.622 433.548 329.892 433.548 324.059V206.15C433.548 200.316 438.277 195.587 444.111 195.587C449.945 195.587 454.674 200.316 454.674 206.15V324.059C454.676 329.891 449.945 334.622 444.111 334.622Z" fill="#D7D9CC"/>
<path d="M655.885 334.622C650.051 334.622 645.322 329.892 645.322 324.059V206.15C645.322 200.316 650.051 195.587 655.885 195.587C661.718 195.587 666.447 200.316 666.447 206.15V324.059C666.449 329.891 661.718 334.622 655.885 334.622Z" fill="#D7D9CC"/>
<path d="M779.758 365.606H320.251V407.735H779.758V365.606Z" fill="#D7D9CC"/>
<path d="M362.504 365.606H320.251V407.733H362.504V365.606Z" fill="#BDBFB4"/>
</g>
<g clip-path="url(#clip2)">
<path d="M83.9775 837.774H24.9375V822.414H160.777V837.774H101.737V990.414H83.9775V837.774ZM224.025 991.614C211.865 991.614 200.905 988.894 191.145 983.454C181.385 977.854 173.705 970.174 168.105 960.414C162.505 950.654 159.705 939.614 159.705 927.294C159.705 914.974 162.505 903.934 168.105 894.174C173.705 884.414 181.385 876.814 191.145 871.374C200.905 865.934 211.865 863.214 224.025 863.214C236.185 863.214 247.145 865.934 256.905 871.374C266.665 876.814 274.265 884.414 279.705 894.174C285.305 903.934 288.105 914.974 288.105 927.294C288.105 939.614 285.305 950.654 279.705 960.414C274.265 970.174 266.665 977.854 256.905 983.454C247.145 988.894 236.185 991.614 224.025 991.614ZM224.025 976.494C232.985 976.494 240.985 974.494 248.025 970.494C255.225 966.334 260.825 960.494 264.825 952.974C268.825 945.454 270.825 936.894 270.825 927.294C270.825 917.694 268.825 909.134 264.825 901.614C260.825 894.094 255.225 888.334 248.025 884.334C240.985 880.174 232.985 878.094 224.025 878.094C215.065 878.094 206.985 880.174 199.785 884.334C192.745 888.334 187.145 894.094 182.985 901.614C178.985 909.134 176.985 917.694 176.985 927.294C176.985 936.894 178.985 945.454 182.985 952.974C187.145 960.494 192.745 966.334 199.785 970.494C206.985 974.494 215.065 976.494 224.025 976.494ZM480.334 863.214C496.174 863.214 508.574 867.774 517.534 876.894C526.654 886.014 531.214 899.454 531.214 917.214V990.414H514.174V918.894C514.174 905.774 510.974 895.774 504.574 888.894C498.334 882.014 489.454 878.574 477.934 878.574C464.814 878.574 454.494 882.654 446.974 890.814C439.454 898.814 435.694 909.934 435.694 924.174V990.414H418.654V918.894C418.654 905.774 415.454 895.774 409.054 888.894C402.814 882.014 393.854 878.574 382.174 878.574C369.214 878.574 358.894 882.654 351.214 890.814C343.694 898.814 339.934 909.934 339.934 924.174V990.414H322.894V864.174H339.214V887.214C343.694 879.534 349.934 873.614 357.934 869.454C365.934 865.294 375.134 863.214 385.534 863.214C396.094 863.214 405.214 865.454 412.894 869.934C420.734 874.414 426.574 881.054 430.414 889.854C435.054 881.534 441.694 875.054 450.334 870.414C459.134 865.614 469.134 863.214 480.334 863.214Z" fill="#3CB104"/>
<path d="M628.444 865.763C640.284 865.763 651.004 868.483 660.604 873.923C670.204 879.203 677.724 886.723 683.164 896.483C688.604 906.243 691.324 917.363 691.324 929.843C691.324 942.483 688.604 953.683 683.164 963.443C677.724 973.203 670.204 980.803 660.604 986.243C651.164 991.523 640.444 994.163 628.444 994.163C618.204 994.163 608.924 992.083 600.604 987.923C592.444 983.603 585.724 977.363 580.444 969.203V1039.52H563.404V866.723H579.724V891.683C584.844 883.363 591.564 876.963 599.884 872.483C608.364 868.003 617.884 865.763 628.444 865.763ZM627.244 979.043C636.044 979.043 644.044 977.043 651.244 973.043C658.444 968.883 664.044 963.043 668.044 955.523C672.204 948.003 674.284 939.443 674.284 929.843C674.284 920.243 672.204 911.763 668.044 904.403C664.044 896.883 658.444 891.043 651.244 886.883C644.044 882.723 636.044 880.643 627.244 880.643C618.284 880.643 610.204 882.723 603.004 886.883C595.964 891.043 590.364 896.883 586.204 904.403C582.204 911.763 580.204 920.243 580.204 929.843C580.204 939.443 582.204 948.003 586.204 955.523C590.364 963.043 595.964 968.883 603.004 973.043C610.204 977.043 618.284 979.043 627.244 979.043ZM835.98 935.123H730.38C731.34 948.243 736.38 958.883 745.5 967.043C754.62 975.043 766.14 979.043 780.06 979.043C787.9 979.043 795.1 977.683 801.66 974.963C808.22 972.083 813.9 967.923 818.7 962.483L828.3 973.523C822.7 980.243 815.66 985.363 807.18 988.883C798.86 992.403 789.66 994.163 779.58 994.163C766.62 994.163 755.1 991.443 745.02 986.003C735.1 980.403 727.34 972.723 721.74 962.963C716.14 953.203 713.34 942.163 713.34 929.843C713.34 917.523 715.98 906.483 721.26 896.723C726.7 886.963 734.06 879.363 743.34 873.923C752.78 868.483 763.34 865.763 775.02 865.763C786.7 865.763 797.18 868.483 806.46 873.923C815.74 879.363 823.02 886.963 828.3 896.723C833.58 906.323 836.22 917.363 836.22 929.843L835.98 935.123ZM775.02 880.403C762.86 880.403 752.62 884.323 744.3 892.163C736.14 899.843 731.5 909.923 730.38 922.403H819.9C818.78 909.923 814.06 899.843 805.74 892.163C797.58 884.323 787.34 880.403 775.02 880.403ZM887.224 891.443C891.224 882.963 897.144 876.563 904.984 872.243C912.984 867.923 922.824 865.763 934.504 865.763V882.323L930.424 882.083C917.144 882.083 906.744 886.163 899.224 894.323C891.704 902.483 887.944 913.923 887.944 928.643V992.963H870.904V866.723H887.224V891.443ZM1015.79 994.163C1003.63 994.163 992.665 991.443 982.905 986.003C973.145 980.403 965.465 972.723 959.865 962.963C954.265 953.203 951.465 942.163 951.465 929.843C951.465 917.523 954.265 906.483 959.865 896.723C965.465 886.963 973.145 879.363 982.905 873.923C992.665 868.483 1003.63 865.763 1015.79 865.763C1027.95 865.763 1038.91 868.483 1048.67 873.923C1058.43 879.363 1066.03 886.963 1071.47 896.723C1077.07 906.483 1079.87 917.523 1079.87 929.843C1079.87 942.163 1077.07 953.203 1071.47 962.963C1066.03 972.723 1058.43 980.403 1048.67 986.003C1038.91 991.443 1027.95 994.163 1015.79 994.163ZM1015.79 979.043C1024.75 979.043 1032.75 977.043 1039.79 973.043C1046.99 968.883 1052.59 963.043 1056.59 955.523C1060.59 948.003 1062.59 939.443 1062.59 929.843C1062.59 920.243 1060.59 911.683 1056.59 904.163C1052.59 896.643 1046.99 890.883 1039.79 886.883C1032.75 882.723 1024.75 880.643 1015.79 880.643C1006.83 880.643 998.745 882.723 991.545 886.883C984.505 890.883 978.905 896.643 974.745 904.163C970.745 911.683 968.745 920.243 968.745 929.843C968.745 939.443 970.745 948.003 974.745 955.523C978.905 963.043 984.505 968.883 991.545 973.043C998.745 977.043 1006.83 979.043 1015.79 979.043Z" fill="#184F06"/>
</g>
</g>
<defs>
<clipPath id="clip0">
<rect width="1100" height="1100" fill="white"/>
</clipPath>
<clipPath id="clip1">
<rect width="700" height="700" fill="white" transform="translate(200 95)"/>
</clipPath>
<clipPath id="clip2">
<rect width="1105" height="274" fill="white" transform="translate(19 788)"/>
</clipPath>
</defs>
</svg>
